# xmcd CD database file
#
# Track frame offsets:
#	150
#	12614
#	27209
#	40334
#	50590
#	60699
#	72740
#	88750
#	99946
#	111647
#	122328
#	136474
#	154272
#	158936
#
# Disc length: 2266 seconds
#
# Revision: 0
# Processed by: cddbd v1.5.2PL0 Copyright (c) Steve Scherf et al.
# Submitted via: CDex 1.51
#
DISCID=c808d80e
DTITLE=Leigh Stafford with the Kingstons - Sentimental Journey
DYEAR=2003
DGENRE=Jazz
TTITLE0=Sentimental Journey
TTITLE1=Moonlight Serenade
TTITLE2=At Last
TTITLE3=I Got Rhythm
TTITLE4=Blue Moon
TTITLE5=My Heart Belongs To Daddy
TTITLE6=Someone To Watch Over Me
TTITLE7=Fascinating Rhythm
TTITLE8=Ain't Misbehaving
TTITLE9=In The Mood
TTITLE10=Somewhere Over The Rainbow
TTITLE11=The Man I Love
TTITLE12=Edelweiss
TTITLE13=Impossible Dream
EXTD=YEAR: 2003
EXTT0=
EXTT1=
EXTT2=
EXTT3=
EXTT4=
EXTT5=
EXTT6=
EXTT7=
EXTT8=
EXTT9=
EXTT10=
EXTT11=
EXTT12=
EXTT13=
PLAYORDER=
